<?xml version="1.0" encoding="utf-8"?>
<!-- Generator: Adobe Illustrator 19.1.0, SVG Export Plug-In . SVG Version: 6.00 Build 0)  -->
<!DOCTYPE svg PUBLIC "-//W3C//DTD SVG 1.1//EN" "http://www.w3.org/Graphics/SVG/1.1/DTD/svg11.dtd">
<svg version="1.1" id="Layer_1" xmlns="http://www.w3.org/2000/svg" xmlns:xlink="http://www.w3.org/1999/xlink" x="0px" y="0px"
	 viewBox="0 0 34.7 19.8" style="enable-background:new 0 0 34.7 19.8;" xml:space="preserve">
<style type="text/css">
	.st0{fill:#D02E37;}
</style>
<g>
	<path class="st0" d="M20.2,11.9C14,12.3,7.8,13.1,1.7,14.3c-1.1,0.2-2,0.4-1.5-1.3c0.5-1.8,0.5-3.6-0.1-5.4c-0.4-1.4,0-1.5,1.3-1.2
		c6.7,1.5,13.5,2,20.3,2.5c3.8,0.3,3.9,0.1,2.2-3.2c-0.6-1.3-1.3-2.5-2.1-3.7c-0.3-0.5-0.6-1-0.1-1.5c0.5-0.5,1.1-0.4,1.6,0
		c3.6,2.9,7.2,5.9,10.8,8.8C35,9.9,34.7,10.5,34,11c-3.5,2.8-7.1,5.6-10.6,8.3c-0.5,0.4-1.2,0.7-1.8,0.1c-0.5-0.6,0-1.1,0.3-1.5
		c0.9-1.5,1.8-3,2.6-4.5c0.7-1.3,0.4-1.9-1.1-1.7C22.4,11.7,21.3,11.8,20.2,11.9z"/>
</g>
</svg>
