<?xml version="1.0" encoding="utf-8"?>
<!-- Generator: Adobe Illustrator 19.1.0, SVG Export Plug-In . SVG Version: 6.00 Build 0)  -->
<!DOCTYPE svg PUBLIC "-//W3C//DTD SVG 1.1//EN" "http://www.w3.org/Graphics/SVG/1.1/DTD/svg11.dtd">
<svg version="1.1" xmlns="http://www.w3.org/2000/svg" xmlns:xlink="http://www.w3.org/1999/xlink" x="0px" y="0px"
	 viewBox="0 0 154 162.7" style="enable-background:new 0 0 154 162.7;" xml:space="preserve" id="image">
<style type="text/css">
	.st0{fill:#C1272D;}
	.st1{fill:#29ABE2;}
	.st2{fill:#FFFFFF;}
</style>
<g id="paper">
	<g>
		<g>
			<path d="M54.5,150.6C44.5,137,34.4,123.5,24.4,110c-4.9-6.6-9.9-13.2-14.8-19.9c-0.1-0.1-2-2.3-2.1-2.9c-0.2-1.4,1.2-4.3,2-5.3
				c1.1-1.4,3.1-2.6,4.5-3.7c3.1-2.5,6.4-4.7,9.7-6.9c12.9-8.4,26.7-15.4,40.2-22.8c3.2-1.8,6.8-4.5,10.3-5.5
				c4.7-1.4,8.7,4.3,11.7,7.4c5.8,5.8,11.4,11.8,17,17.8c12.4,13.4,24.4,27.3,35.9,41.5c1.2,1.5,3.3-0.6,2.1-2.1
				c-11.7-14.5-23.9-28.5-36.6-42.2c-6.2-6.7-12.6-13.3-19-19.8c-2-2-4.3-4.9-7.2-5.9c-3-1-5.7,0.7-8.3,2.1
				c-15.5,8.4-31.3,16.5-46.2,25.9c-6,3.8-13.9,8.3-18.3,14C1,87.5,9,94.3,12.3,98.7c13.2,17.8,26.4,35.6,39.6,53.4
				C53.1,153.6,55.7,152.1,54.5,150.6L54.5,150.6z"/>
		</g>
	</g>
</g>
<g id="triangle">
	<g>
		<g>
			<path id="triangle_path" d="M54.8,65.4c-3.8,19.8-5.7,40.2-4.9,60.4c0.2,5.1,2.3,8.4,7.8,6.1c3.7-1.6,7-4.7,10.2-7.1c4.2-3.1,8.4-6.3,12.5-9.4
				c7.8-6,16.2-11.7,23.4-18.4c5.1-4.7,0.5-8.2-4.4-10.3c-15.7-6.9-33.5-9.4-47.2-20.5c-1.5-1.2-3.6,0.9-2.1,2.1
				c9.7,7.9,21.5,11.7,33.2,15.6c3.2,1.1,20.7,5.3,19.3,10.2c-0.3,1.1-3,2.4-4,3.2c-1.5,1.2-3.1,2.4-4.6,3.7
				c-3.5,2.8-7.1,5.6-10.7,8.3c-6.7,5.1-13.4,10.2-20.2,15.2c-2.3,1.7-7.7,7.4-10.3,3.3c-0.7-1.1-0.1-4.6-0.2-5.8c0-1.9,0-3.9,0-5.8
				c0.1-16.7,1.8-33.4,4.9-49.8C58.1,64.3,55.2,63.5,54.8,65.4L54.8,65.4z"/>
		</g>
	</g>
</g>
<g id="pen">
	<g>
		<path class="st2" d="M0.6-7.9c4.4-15.4,8.8-30.8,13.3-46.1c0.2-0.7,0.4-1.5,0.9-2.1c1.6-1.9,4.6-0.9,6.8,0.1c0.9,0.4,1.8,1,2,1.9
			c0.1,0.6-0.1,1.2-0.3,1.7c-4.3,11.2-9.7,22-12.9,33.6C8.6-11.9,7-3.9,0.9,0c-1.3-2.7-1.4-5.9-0.2-8.6"/>
		<g>
			<path d="M2.1-7.5c2.7-9.2,5.3-18.5,8-27.7c1.4-4.9,2.8-9.8,4.2-14.8c0.7-2.4,0.8-5.8,4.6-5.6c4.2,0.3,2.7,3.8,1.8,6.1
				c-3.4,8.3-7.2,16.5-10,25.1C8.1-16.6,7.3-6.5,0.2-1.3C0.9-1,1.7-0.7,2.4-0.4c-1.1-2.7-1.1-5-0.2-7.8C2.9-10,0-10.8-0.7-9
				c-1.1,3.2-1.1,6.2,0.2,9.4c0.3,0.8,1.3,1.5,2.2,0.9c8.4-6.1,9.2-17.4,12.4-26.6c2.2-6.2,4.8-12.3,7.4-18.4
				c1.3-3.1,5.3-8.7,3.1-12.1c-1.4-2.2-5.8-3.4-8.2-3c-4.2,0.8-4.6,6.4-5.6,9.8C7-35.4,3.1-21.9-0.8-8.3C-1.3-6.5,1.6-5.7,2.1-7.5
				L2.1-7.5z"/>
		</g>
	</g>
</g>

<animateMotion xlink:href="#pen" dur="5s" fill="freeze" repeatCount="indefinite" begin="image.click">
	<mpath xlink:href="#triangle_path" />
</animateMotion>
</svg>

